<?xml version="1.0" encoding="UTF-8"?>
<svg width="16px" height="16px" viewBox="0 0 16 16" version="1.1" xmlns="http://www.w3.org/2000/svg" xmlns:xlink="http://www.w3.org/1999/xlink">
    <title>shezhi_huaban1</title>
    <g id="1.7.3" stroke="none" stroke-width="1" fill="none" fill-rule="evenodd">
        <g id="设置" transform="translate(-28, -222)" fill-rule="nonzero">
            <g id="shezhi_huaban1" transform="translate(28, 222)">
                <path d="M15.8116493,6.34027867 L15.8175353,6.33823341 C15.6684243,5.6142145 15.2171674,5.14789723 14.6678112,5.14789723 L14.5991416,5.14789723 C13.8104231,5.14789723 13.1943593,4.49750735 13.1943593,3.66509012 C13.1943593,3.45442925 13.2904966,3.18445609 13.3316983,3.08423878 C13.5847946,2.45021092 13.378786,1.68937748 12.8451257,1.27828199 C12.8078479,1.24964847 12.7568363,1.22715071 12.7058246,1.2107887 L10.8870632,0.132941327 C10.8537094,0.112488815 10.8085837,0.0981720568 10.761496,0.0879458008 C10.5633354,0 10.3965665,0 10.2219497,0 C9.78835071,0 9.37044758,0.188163109 9.15659105,0.460181516 C8.86621704,0.764923942 8.30312692,1.18829094 7.99901901,1.18829094 C7.67332925,1.18829094 7.07099939,0.703566407 6.84144697,0.425412246 C6.59227468,0.163620095 6.18418148,0 5.77608829,0 C5.60147149,0 5.4405886,0.0368145213 5.32090742,0.0756742937 C5.26008584,0.0818100473 5.20122624,0.102262559 5.14825261,0.132941327 L3.27651747,1.23737697 C3.21961987,1.25169372 3.16664623,1.27828199 3.11955855,1.31509651 C2.58197425,1.72823725 2.38185162,2.45634667 2.63690987,3.09651029 C2.67418761,3.18241084 2.77032495,3.45442925 2.77032495,3.66509012 C2.77032495,4.4954621 2.1522992,5.14789723 1.33218884,5.14789723 C0.755364807,5.14789723 0.284488044,5.63875751 0.180502759,6.34436917 C0.0941753525,6.67979036 0,7.51016234 0,8.01738464 C0,8.03170139 0.0215818516,9.1627253 0.188350705,9.69653586 L0.182464746,9.69858111 C0.33157572,10.4226 0.782832618,10.8889173 1.33218884,10.8889173 L1.40085837,10.8889173 C2.18957695,10.8889173 2.80564071,11.5393072 2.80564071,12.3717244 C2.80564071,12.5823853 2.70950337,12.8523584 2.66633967,12.9525757 C2.4152054,13.5906941 2.62121398,14.3494823 3.16076027,14.7564873 C3.19803801,14.7851208 3.24708768,14.8055733 3.30006131,14.8219353 L5.08546904,15.8670587 C5.11882281,15.8854659 5.16198651,15.9018279 5.20907419,15.9120542 C5.40723483,16 5.57400368,16 5.74665849,16 C6.17437155,16 6.57265481,15.8077464 6.81201717,15.5050492 C7.25346413,15.0407772 7.74003679,14.705356 7.96958921,14.705356 C8.28546904,14.705356 8.91722869,15.2064425 9.1350092,15.4743704 C9.39399142,15.7995654 9.82562845,16 10.2611895,16 C10.4004905,16 10.5515635,15.975457 10.7104844,15.926371 C10.7732679,15.9202352 10.8340895,15.8997827 10.8890251,15.8670587 L12.6901288,14.7973923 C12.7470264,14.7830755 12.8,14.7564873 12.8470877,14.7196728 C13.384672,14.306532 13.5847946,13.5784226 13.3297364,12.938259 C13.2924586,12.8523584 13.1963213,12.58034 13.1963213,12.3696792 C13.1963213,11.5393072 13.814347,10.886872 14.6011036,10.886872 L14.6697731,10.886872 C15.2524831,10.886872 15.7272839,10.3837403 15.8194972,9.69244535 C15.8273452,9.65563083 16,8.77412757 16,8.01533938 C16,8.00511313 15.9764562,6.87204397 15.8116493,6.34027867 L15.8116493,6.34027867 Z M14.9483752,9.53700626 C14.9110975,9.80697942 14.7776824,9.96855426 14.6678112,9.96855426 L14.5991416,9.96855426 C13.3375843,9.96855426 12.3114654,11.0464016 12.3114654,12.3717244 C12.3114654,12.8175892 12.4998161,13.2675444 12.5174739,13.3023137 C12.6018394,13.5150198 12.5469037,13.7584047 12.3860208,13.9220248 C12.366401,13.9302058 12.3487431,13.9383868 12.3310852,13.9486131 L10.5299816,15.0203247 C10.5182097,15.0244152 10.5064378,15.0264604 10.4946658,15.0305509 C10.3789086,15.071456 10.3023912,15.079637 10.2592275,15.079637 C10.0669528,15.079637 9.88841202,14.9835102 9.80797057,14.8812476 C9.61961987,14.6501342 8.75242183,13.784993 7.96762722,13.784993 C7.3025138,13.784993 6.56480687,14.4558354 6.15671367,14.8873834 C6.06057633,15.0080532 5.9055794,15.079637 5.74469651,15.079637 C5.5857756,15.079637 5.57204169,15.0775917 5.53280196,15.0571392 C5.50925812,15.0448677 5.47982833,15.0346414 5.44647456,15.0264604 L3.66891478,13.9854276 C3.65518087,13.9772466 3.63752299,13.9690656 3.61986511,13.9629298 C3.45702023,13.7972645 3.39619865,13.5252461 3.4766401,13.3186757 C3.49822195,13.2695897 3.68657265,12.8196344 3.68657265,12.3737697 C3.68657265,11.0484469 2.66045371,9.97059951 1.39889638,9.97059951 L1.33022685,9.97059951 C1.23801349,9.97059951 1.10459841,9.80902467 1.04377682,9.5063275 C1.03789086,9.47769398 1.03004292,9.45110571 1.018271,9.42451745 C0.980993256,9.26089735 0.880931944,8.57573821 0.880931944,8.01942989 C0.880931944,7.46721207 0.990803188,6.73501214 1.02611895,6.59388981 C1.03592888,6.56321104 1.04377682,6.53253228 1.0477008,6.49980826 C1.08497854,6.2298351 1.22035561,6.06826026 1.36358063,6.06826026 C2.62513795,6.06826026 3.6512569,4.99041289 3.6512569,3.66509012 C3.6512569,3.21922536 3.46290619,2.7692701 3.44524831,2.73450083 C3.36088289,2.52179471 3.41581852,2.27840982 3.57670141,2.11478972 C3.59435929,2.10660872 3.61397915,2.09842771 3.62967505,2.08820146 L5.50141018,0.983765819 C5.51710607,0.979675316 5.53083998,0.975584814 5.54653587,0.96944906 C5.62697731,0.938770293 5.70938075,0.922408283 5.7741263,0.922408283 C5.95855303,0.922408283 6.14101778,1.00012783 6.19006744,1.04921386 C6.37253219,1.27419149 7.21618639,2.11069922 7.99705702,2.11069922 C8.80735745,2.11069922 9.68436542,1.21283395 9.80797057,1.07989262 C9.88056407,0.987856321 10.0532189,0.922408283 10.2199877,0.922408283 C10.3789086,0.922408283 10.3926426,0.924453534 10.4318823,0.944906046 C10.4554261,0.957177553 10.4848559,0.967403809 10.5162477,0.975584814 L12.3271613,2.04934168 C12.3408952,2.05752269 12.358553,2.06570369 12.3762109,2.07183945 C12.5390558,2.23955004 12.5998774,2.5136137 12.5174739,2.71813882 C12.4958921,2.76722485 12.3075414,3.21718011 12.3075414,3.66304487 C12.3075414,4.98836763 13.3336603,6.06621501 14.5952177,6.06621501 L14.6638872,6.06621501 C14.7561006,6.06621501 14.8895156,6.22778985 14.9503372,6.53048703 C14.9562232,6.55912054 14.9640711,6.58570881 14.975843,6.61229707 C15.0131208,6.77387192 15.1132527,7.46107631 15.1132527,8.01738464 C15.1171061,8.68004602 14.9562232,9.50019174 14.9483752,9.53700626 L14.9483752,9.53700626 Z" id="形状" fill="#333333"></path>
                <path d="M8,5 C6.3462963,5 5,6.34660135 5,8 C5,9.65339865 6.3462963,11 8,11 C9.6537037,11 11,9.65339865 11,8 C11,6.34660135 9.6537037,5 8,5 L8,5 Z M8,10.1714636 C6.80555556,10.1714636 5.83333333,9.19595836 5.83333333,7.99816289 C5.83333333,6.80036742 6.80555556,5.82486222 8,5.82486222 C9.19444444,5.82486222 10.1666667,6.80036742 10.1666667,7.99816289 C10.1666667,9.19595836 9.19444444,10.1714636 8,10.1714636 L8,10.1714636 Z" id="形状" fill="#303133"></path>
            </g>
        </g>
    </g>
</svg>